<?xml version="1.0" standalone="no"?>
<!DOCTYPE svg PUBLIC "-//W3C//DTD SVG 20010904//EN"
 "http://www.w3.org/TR/2001/REC-SVG-20010904/DTD/svg10.dtd">
<svg version="1.0" xmlns="http://www.w3.org/2000/svg"
 width="258.000000pt" height="302.000000pt" viewBox="0 0 258.000000 302.000000"
 preserveAspectRatio="xMidYMid meet">

<g transform="translate(0.000000,302.000000) scale(0.100000,-0.100000)"
fill="#000000" stroke="none">
<path d="M0 1510 l0 -1510 1290 0 1290 0 0 1510 0 1510 -1290 0 -1290 0 0
-1510z m2119 1291 c45 -45 102 -207 136 -389 14 -75 33 -168 40 -207 29 -137
35 -308 35 -935 -1 -674 -3 -708 -49 -798 -41 -81 -140 -108 -206 -57 -40 29
-59 84 -80 226 -9 57 -20 120 -25 139 -4 19 -11 63 -15 97 -11 100 -15 102
-129 68 l-96 -29 -1 -86 c0 -47 -4 -164 -8 -260 -8 -197 -14 -216 -84 -245
-69 -28 -149 -14 -197 36 -29 31 -37 55 -50 137 -14 86 -63 285 -85 338 -9 23
-26 47 -39 54 -33 17 -204 9 -217 -10 -14 -22 -24 -65 -63 -269 -38 -199 -47
-222 -109 -254 -78 -40 -180 6 -206 95 -7 24 -17 101 -22 173 -10 145 -30 250
-51 272 -13 12 -19 11 -46 -12 -36 -30 -74 -138 -118 -335 -25 -115 -31 -128
-65 -161 -50 -49 -96 -57 -154 -29 -57 27 -82 70 -94 156 -6 38 -10 236 -11
439 0 425 9 506 77 675 102 253 303 384 618 406 165 11 226 35 284 108 38 48
40 58 44 311 4 228 13 274 63 328 29 32 77 36 129 11 38 -18 116 -104 165
-184 18 -30 47 -70 64 -87 30 -33 31 -33 126 -33 70 0 101 4 118 15 12 9 43
54 68 100 26 46 75 114 109 150 51 53 67 65 93 65 18 0 40 -8 51 -19z"/>
<path d="M1970 2283 c-44 -17 -55 -91 -18 -117 31 -22 74 -20 98 4 53 53 -8
140 -80 113z"/>
<path d="M1416 2239 c-30 -24 -34 -63 -10 -97 11 -16 25 -22 54 -22 67 0 93
68 45 115 -30 30 -54 31 -89 4z"/>
<path d="M1712 2028 c-21 -21 -13 -55 19 -82 36 -30 42 -31 73 -11 33 22 52
70 36 90 -15 18 -110 21 -128 3z"/>
</g>
</svg>
